<svg width="40" height="32" viewBox="0 0 23 18" fill="none" xmlns="http://www.w3.org/2000/svg"><path d="M8.711 7.046a7.062 7.062 0 0 1 2.682-5.538A6.99 6.99 0 0 0 7.045 0 7.04 7.04 0 0 0 0 7.046a7.041 7.041 0 0 0 11.393 5.539A7.03 7.03 0 0 1 8.71 7.046Z" fill="#E31021"/><path d="M22.802 7.046a7.042 7.042 0 0 1-7.046 7.048 6.995 6.995 0 0 1-4.347-1.51 7.002 7.002 0 0 0 2.682-5.538 7.065 7.065 0 0 0-2.682-5.538A6.993 6.993 0 0 1 15.756 0c3.895 0 7.046 3.172 7.046 7.046Z" fill="#F49D1E"/><path d="M11.41 1.508h-.018a7.061 7.061 0 0 0-2.681 5.538 7.031 7.031 0 0 0 2.681 5.539h.017a7 7 0 0 0 2.682-5.539 7.065 7.065 0 0 0-2.682-5.538Z" fill="#EA611C"/><path fill-rule="evenodd" clip-rule="evenodd" d="M21.707 16.715v-1.682h-.413v.98a.697.697 0 0 0-.587-.274c-.527 0-.937.412-.937.976 0 .57.409.98.937.98.276 0 .47-.098.587-.271v.233h.414v-.942Zm-12.136-.938h.664v.374h-.663v.842c0 .194.076.31.273.31a.663.663 0 0 0 .355-.095l.115.351a1.095 1.095 0 0 1-.51.136c-.469 0-.642-.254-.642-.684v-.86h-.375v-.374h.375v-.565h.409v.565Zm-5.42.706v1.174h-.45v-1.038c0-.313-.138-.491-.413-.491-.256 0-.45.157-.45.491v1.037h-.413V16.62c0-.313-.136-.491-.41-.491-.274 0-.45.157-.45.491v1.037h-.41v-1.88h.41v.236a.637.637 0 0 1 .548-.274c.294 0 .49.117.627.333a.772.772 0 0 1 .667-.333c.47 0 .744.295.744.745Zm9.57-.744a.548.548 0 0 0-.49.274v-.236h-.41v1.88h.41V16.6c0-.315.137-.49.39-.49.08 0 .177.018.258.04l.116-.395c-.08-.017-.196-.016-.273-.016Zm-6.027 0c.294 0 .567.06.76.195l-.171.332a1.445 1.445 0 0 0-.588-.155c-.217 0-.355.077-.355.215 0 .116.138.156.313.174l.197.02c.39.059.644.236.644.567 0 .353-.314.608-.86.608-.295 0-.588-.078-.802-.235l.196-.313c.135.098.353.198.625.198.274 0 .43-.1.43-.237 0-.099-.115-.158-.332-.194l-.195-.02c-.413-.06-.646-.237-.646-.55 0-.372.313-.605.784-.605Zm11.682 0a.543.543 0 0 0-.486.274v-.236h-.413v1.88h.413V16.6c0-.315.136-.49.39-.49.078 0 .177.018.252.04l.12-.395c-.078-.017-.195-.016-.276-.016Zm-4.247 1.956c-.606 0-.998-.41-.998-.98 0-.565.392-.976.998-.977.275 0 .47.06.67.216l-.2.331a.792.792 0 0 0-.49-.174c-.33.015-.567.253-.567.604 0 .372.237.609.567.609a.782.782 0 0 0 .49-.177l.2.333c-.2.157-.395.215-.67.215Zm2.799-.98v-.938h-.41v.236a.705.705 0 0 0-.588-.274c-.526 0-.94.412-.94.976 0 .57.414.98.94.98.274 0 .473-.098.588-.271v.233h.41v-.942Zm-.938-.604c-.352 0-.57.274-.57.604 0 .336.216.588.57.609.33 0 .568-.273.568-.609 0-.351-.238-.604-.568-.604Zm-5.48-.372c-.55 0-.94.39-.94.976 0 .588.39.98.96.98.273 0 .546-.078.76-.254l-.193-.293a.936.936 0 0 1-.549.197c-.257 0-.51-.12-.569-.45h1.39v-.158c.022-.609-.331-.998-.859-.998Zm.47.804c-.04-.294-.217-.451-.47-.451-.293 0-.471.194-.51.45h.98Zm8.786-.432c-.353 0-.566.274-.566.604 0 .336.213.588.566.609.336 0 .569-.273.569-.609 0-.351-.233-.604-.569-.604Zm-14.308.604v-.938H6.05v.236a.706.706 0 0 0-.588-.274c-.532 0-.94.412-.94.976 0 .57.409.98.94.98.273 0 .47-.098.588-.271v.233h.408v-.942Zm-.958-.604c-.352 0-.57.274-.57.604 0 .336.218.588.57.609.33 0 .57-.273.57-.609 0-.351-.239-.604-.57-.604Z" fill="#000"/></svg>