<svg width="84" height="32" viewBox="0 0 127 48" fill="none" xmlns="http://www.w3.org/2000/svg"><path d="M46.514 23.086c0-8.282-10.293-15.037-22.991-15.037-12.699 0-22.987 6.75-22.987 15.037v.879c0 8.788 8.997 15.903 22.987 15.903 13.99 0 22.99-7.115 22.99-15.903v-.883.004Z" fill="#0A0080"/><path d="M45.634 23.077c0 7.807-9.897 14.141-22.103 14.141-12.206 0-22.103-6.329-22.103-14.14 0-7.812 9.897-14.141 22.103-14.141 12.206 0 22.103 6.333 22.103 14.14Z" fill="#00BDFF"/><path d="M16.19 18.617s-.23.253-.088.435c.35.444 1.425.701 2.516.457.649-.146 1.478-.808 2.286-1.447.875-.692 1.74-1.39 2.61-1.664.923-.293 1.514-.169 1.9-.05.43.13.932.41 1.735 1.013 1.514 1.136 7.594 6.444 8.646 7.363.848-.381 4.607-2.002 9.72-3.124-.444-2.726-2.104-5.22-4.616-7.262-3.502 1.474-7.785 2.242-11.97.196-.022-.01-2.29-1.083-4.523-1.03-3.32.075-4.758 1.513-6.285 3.036l-1.926 2.077h-.004Z" fill="#fff"/><path d="M35.547 25.301c-.07-.062-7.15-6.258-8.752-7.465-.928-.697-1.443-.875-1.984-.941a2.614 2.614 0 0 0-.946.093c-.745.2-1.722.852-2.587 1.54-.897.715-1.745 1.385-2.526 1.562-1.003.227-2.228-.04-2.787-.417-.226-.15-.386-.328-.462-.506-.204-.48.173-.86.236-.923l1.952-2.113c.227-.226.457-.453.693-.679-.63.085-1.212.244-1.78.404-.71.2-1.39.386-2.077.386-.289 0-1.829-.253-2.122-.333-1.766-.484-3.32-.954-5.637-2.037-2.778 2.068-4.633 4.651-5.17 7.501.4.107 1.043.297 1.313.355 6.285 1.398 8.243 2.836 8.598 3.138a2.085 2.085 0 0 1 1.557-.697c.697 0 1.323.35 1.705.892a2.38 2.38 0 0 1 1.5-.528c.293 0 .595.053.897.16.71.244 1.074.714 1.265 1.14a2.13 2.13 0 0 1 .874-.186c.337 0 .692.08 1.043.231 1.158.497 1.34 1.638 1.234 2.494a2.496 2.496 0 0 1 2.738 2.481 2.5 2.5 0 0 1-.297 1.177c.373.208 1.327.683 2.162.581.67-.084.923-.315 1.011-.444.063-.089.13-.19.067-.266l-1.77-1.97s-.294-.276-.196-.382c.102-.111.28.044.408.155.901.755 2.006 1.89 2.006 1.89.018.014.094.156.497.232.351.062.973.026 1.403-.329.111-.089.218-.2.306-.315-.009.004-.013.013-.022.018.453-.582-.049-1.168-.049-1.168l-2.068-2.325s-.297-.276-.195-.382c.088-.098.28.049.408.155.657.546 1.585 1.478 2.468 2.348.173.129.954.608 1.988-.066.626-.413.755-.915.737-1.3-.044-.507-.44-.866-.44-.866L29.92 24.75s-.297-.253-.19-.382c.088-.107.279.049.408.155.9.755 3.342 2.992 3.342 2.992.035.026.879.626 1.917-.04.373-.24.613-.595.63-1.012.036-.724-.474-1.154-.474-1.154" fill="#fff"/><path d="M21.83 28.905c-.44-.004-.919.253-.98.218-.036-.023.026-.2.066-.302.04-.102.621-1.838-.79-2.441-1.079-.462-1.736.057-1.962.293-.058.062-.084.057-.093-.023-.023-.31-.16-1.158-1.092-1.442-1.327-.408-2.184.52-2.401.857a1.535 1.535 0 0 0-1.523-1.345c-.852 0-1.54.688-1.544 1.54a1.538 1.538 0 0 0 2.605 1.11c.009.008.013.022.009.053-.067.381-.186 1.766 1.27 2.33.58.226 1.078.058 1.486-.23.125-.09.142-.05.125.066-.054.355.013 1.118 1.082 1.553.817.333 1.296-.009 1.612-.302.137-.124.173-.102.182.09a1.935 1.935 0 0 0 1.935 1.85c1.074 0 1.94-.866 1.94-1.94a1.95 1.95 0 0 0-1.94-1.944" fill="#fff"/><path d="M21.831 32.647a1.789 1.789 0 0 1-1.797-1.717c0-.085-.014-.302-.195-.302-.076 0-.142.044-.218.115-.213.2-.484.4-.883.4-.182 0-.378-.04-.582-.125-1.025-.412-1.038-1.118-.998-1.402.013-.076.013-.155-.036-.218l-.062-.057h-.062c-.053 0-.107.022-.178.07-.297.21-.581.311-.87.311a1.38 1.38 0 0 1-.488-.093c-1.35-.524-1.247-1.802-1.18-2.184.008-.08-.01-.137-.058-.177l-.098-.08-.088.084a1.406 1.406 0 0 1-2.375-1.012c0-.772.63-1.402 1.407-1.402a1.4 1.4 0 0 1 1.385 1.225l.049.377.204-.32c.022-.035.59-.896 1.633-.896.2 0 .404.035.608.098.83.253.972 1.007.994 1.322.014.182.147.191.169.191.071 0 .124-.044.16-.084a1.41 1.41 0 0 1 1.034-.435c.244 0 .506.058.772.173 1.318.568.72 2.246.715 2.264-.116.28-.12.403-.014.47l.054.027h.035c.062 0 .133-.027.258-.067.182-.062.452-.155.705-.155.995.013 1.802.82 1.802 1.802 0 .99-.807 1.797-1.802 1.797Zm13.99-8.086c-2.179-1.905-7.221-6.285-8.584-7.31-.78-.587-1.313-.897-1.78-1.04a2.993 2.993 0 0 0-.874-.132 3.69 3.69 0 0 0-1.11.186c-.883.28-1.761.976-2.614 1.651l-.044.036c-.795.63-1.611 1.282-2.228 1.42a3.71 3.71 0 0 1-.826.093c-.692 0-1.318-.2-1.549-.501-.04-.05-.013-.13.076-.244l.013-.014 1.918-2.068c1.504-1.5 2.92-2.92 6.187-2.996h.164c2.033 0 4.066.91 4.296 1.016 1.909.932 3.875 1.403 5.855 1.407 2.063 0 4.19-.51 6.426-1.54-.248-.208-.51-.417-.776-.617-1.967.852-3.84 1.283-5.642 1.283-1.846 0-3.688-.444-5.477-1.318-.093-.045-2.339-1.105-4.673-1.105h-.187c-2.743.066-4.287 1.038-5.33 1.89-1.012.027-1.882.271-2.659.484-.692.191-1.291.36-1.873.36-.24 0-.67-.023-.71-.023-.67-.022-4.048-.847-6.738-1.868-.275.195-.537.395-.794.6 2.81 1.149 6.227 2.04 7.306 2.107.301.022.621.054.94.054.715 0 1.425-.2 2.113-.391.409-.115.857-.24 1.327-.328a14.91 14.91 0 0 0-.377.377l-1.948 2.108c-.156.155-.489.568-.267 1.079.09.204.267.4.51.568.467.315 1.297.523 2.069.523.293 0 .573-.026.826-.084.816-.182 1.673-.865 2.583-1.589.723-.577 1.753-1.305 2.538-1.518.223-.058.489-.097.706-.097.067 0 .124 0 .182.009.52.066 1.026.244 1.922.918 1.598 1.203 8.682 7.395 8.748 7.457.005 0 .457.395.426 1.038-.018.36-.217.684-.563.906-.302.19-.613.288-.928.288a1.49 1.49 0 0 1-.821-.24c-.027-.022-2.45-2.245-3.347-2.99-.142-.12-.28-.227-.417-.227a.23.23 0 0 0-.186.088c-.142.174.017.413.204.573l2.836 2.85s.355.328.39.767c.023.47-.204.866-.674 1.172-.333.222-.67.333-1.003.333-.435 0-.741-.2-.808-.244l-.404-.4c-.741-.732-1.509-1.486-2.073-1.952-.137-.116-.284-.222-.421-.222a.242.242 0 0 0-.178.075c-.062.071-.11.2.049.413.067.089.142.16.142.16l2.068 2.32s.427.507.045.99l-.076.094a3.725 3.725 0 0 1-.19.186c-.356.289-.826.32-1.012.32-.103 0-.196-.009-.28-.022-.204-.036-.342-.093-.409-.173l-.026-.027c-.111-.115-1.154-1.18-2.02-1.9-.115-.097-.257-.217-.403-.217a.238.238 0 0 0-.187.084c-.168.187.084.466.195.568l1.762 1.944s-.026.058-.066.12c-.062.089-.275.302-.914.382a2.05 2.05 0 0 1-.236.013c-.661 0-1.362-.32-1.726-.515a2.632 2.632 0 0 0-2.383-3.75h-.094c.049-.662-.044-1.918-1.336-2.472a2.777 2.777 0 0 0-1.1-.244c-.285 0-.55.048-.808.146a2.203 2.203 0 0 0-1.288-1.092 2.893 2.893 0 0 0-.945-.169c-.537 0-1.03.156-1.469.471a2.232 2.232 0 0 0-1.731-.834c-.586 0-1.15.235-1.571.652-.55-.422-2.725-1.802-8.553-3.125a28.493 28.493 0 0 1-1.327-.364 9.918 9.918 0 0 0-.151.955s1.074.257 1.287.306c5.952 1.323 7.923 2.698 8.256 2.956a2.27 2.27 0 0 0-.174.857 2.234 2.234 0 0 0 2.641 2.197c.187.905.777 1.593 1.683 1.944a2.2 2.2 0 0 0 .794.155c.169 0 .342-.018.51-.062.17.426.542.954 1.385 1.296.293.12.59.182.875.182.235 0 .466-.04.683-.12a2.636 2.636 0 0 0 2.432 1.633c.71 0 1.39-.288 1.887-.799.426.236 1.318.662 2.228.666.115 0 .226-.009.337-.022.901-.116 1.318-.466 1.51-.737.035-.049.066-.098.092-.15.213.061.444.11.715.11.493 0 .963-.169 1.438-.515.47-.337.803-.82.848-1.233v-.018c.16.03.32.049.483.049.506 0 1.004-.16 1.478-.47.92-.6 1.08-1.386 1.061-1.9.16.03.324.048.484.048.475 0 .941-.142 1.385-.426.568-.364.91-.919.963-1.567a2.093 2.093 0 0 0-.306-1.265c1.535-.66 5.046-1.944 9.183-2.876a9.876 9.876 0 0 0-.129-.954c-5.002 1.11-8.74 2.725-9.671 3.143m86.975-5.967c-.404.533-.976.804-1.731.804-.754 0-1.331-.267-1.735-.804-.408-.532-.608-1.296-.608-2.28 0-.986.2-1.745.608-2.273.404-.533.985-.8 1.735-.8.75 0 1.332.267 1.731.8.404.532.604 1.291.604 2.272 0 .981-.2 1.744-.604 2.281Zm2.055-5.965c-.83-1.038-2.086-1.558-3.777-1.558-1.691 0-2.947.52-3.777 1.558-.83 1.039-1.247 2.268-1.247 3.684 0 1.416.417 2.676 1.247 3.702.83 1.02 2.091 1.535 3.777 1.535 1.687 0 2.952-.51 3.777-1.535.83-1.026 1.247-2.26 1.247-3.702 0-1.442-.412-2.645-1.247-3.684Zm-22.511 4.754c-.018.861-.267 1.456-.737 1.784a2.677 2.677 0 0 1-1.558.489 1.42 1.42 0 0 1-.905-.293c-.249-.196-.373-.515-.373-.954 0-.493.204-.857.608-1.097.24-.137.635-.257 1.185-.35l.59-.111c.293-.058.524-.116.693-.178.168-.062.332-.142.497-.248v.958Zm1.309-5.619c-.843-.426-1.802-.639-2.889-.639-1.67 0-2.841.435-3.529 1.3-.43.555-.675 1.265-.728 2.127h2.49c.062-.382.182-.684.368-.906.258-.302.693-.453 1.31-.453.55 0 .967.076 1.251.231.285.151.427.43.427.835 0 .332-.187.572-.555.732-.209.093-.551.164-1.03.226l-.883.107c-1.003.129-1.762.337-2.277.634-.941.546-1.411 1.42-1.411 2.632 0 .933.292 1.656.878 2.166.586.51 1.327.724 2.224.764 5.628.253 5.566-2.965 5.615-3.635v-3.702c0-1.19-.422-1.997-1.261-2.428m-12.839 1.571c.643 0 1.114.2 1.42.595.209.293.342.626.39.994h2.775c-.151-1.402-.644-2.379-1.47-2.934-.83-.55-1.895-.83-3.195-.83-1.531 0-2.73.47-3.6 1.407-.87.941-1.305 2.25-1.305 3.937 0 1.491.395 2.712 1.18 3.649.786.936 2.016 1.407 3.685 1.407s2.93-.564 3.781-1.687c.533-.697.83-1.438.892-2.22h-2.765c-.057.52-.217.937-.488 1.266-.266.324-.715.488-1.354.488-.896 0-1.504-.408-1.828-1.23-.178-.439-.267-1.016-.267-1.735 0-.719.09-1.358.267-1.82.337-.856.963-1.291 1.877-1.291m-5.718-2.171c-5.704 0-5.366 5.051-5.366 5.051v5.131h2.587v-4.811c0-.79.102-1.372.298-1.753.355-.675 1.047-1.012 2.086-1.012a6.316 6.316 0 0 1 .741.044V11.17a3.94 3.94 0 0 0-.222-.013c-.031 0-.075-.005-.124-.005Zm-12.982 2.682c.364-.373.875-.564 1.536-.564.608 0 1.114.178 1.527.533.408.355.639.87.683 1.553h-4.43c.094-.64.325-1.145.684-1.522Zm3.48 4.82a1.784 1.784 0 0 1-.355.39c-.364.302-.861.395-1.447.395-.555 0-.985-.084-1.376-.328-.644-.4-1.012-1.07-1.047-2.055h7.163c.01-.848-.018-1.5-.084-1.953a4.903 4.903 0 0 0-.781-2.033c-.448-.661-1.017-1.15-1.7-1.456-.688-.306-1.456-.457-2.313-.457-1.442 0-2.614.453-3.515 1.363-.9.91-1.354 2.215-1.354 3.919 0 1.82.502 3.13 1.5 3.937 1 .808 2.158 1.212 3.463 1.212 1.584 0 2.818-.48 3.697-1.434.475-.502.772-.999.9-1.491h-2.747l-.004-.01Zm-7.856 2.675h-2.361v-5.951c0-.546-.182-1.838-1.74-1.838-1.039 0-1.793.75-1.793 1.838v5.951h-2.366v-5.951c0-.546-.164-1.838-1.722-1.838-1.057 0-1.793.75-1.793 1.838v5.951h-2.366v-5.894c0-2.459 1.629-4.314 4.159-4.314 1.256 0 2.277.528 2.938 1.372a3.765 3.765 0 0 1 2.938-1.372c2.583 0 4.101 1.78 4.101 4.314v5.894h.005Zm44.446-2.711c-.378.541-.933.812-1.66.812-.728 0-1.27-.275-1.629-.816-.36-.546-.537-1.336-.537-2.246 0-.844.173-1.55.523-2.117.351-.569.901-.853 1.656-.853.493 0 .927.156 1.3.47.608.52.91 1.448.91 2.65 0 .857-.191 1.563-.568 2.1m3.103-10.572s-2.606-.28-2.606 1.815v2.774a3.15 3.15 0 0 0-1.127-1.087c-.462-.262-.99-.391-1.589-.391-1.292 0-2.321.48-3.098 1.442-.772.964-1.159 2.348-1.159 4.026 0 1.456.395 2.65 1.177 3.578.785.927 2.321 1.335 3.688 1.335 4.767 0 4.709-4.087 4.709-4.087V8.045h.005ZM60.503 30.756c0-.977-.19-1.727-.572-2.255-.382-.524-.924-.79-1.634-.79-.71 0-1.216.266-1.598.79-.355.475-.532 1.23-.532 2.255 0 .954.19 1.664.572 2.14.378.527.924.79 1.634.79.657 0 1.18-.263 1.558-.79.381-.525.572-1.24.572-2.14Zm-4.336 7.004c0 .364-.138.679-.418.932-.248.23-.58.346-.918.346h-1.252v-8.992c0-1.749.59-2.845 1.558-3.582.701-.537 1.78-1.043 3.91-.941 1.097.049 2.157.528 2.854 1.38.861 1.052 1.225 2.22 1.225 3.75 0 1.532-.382 2.85-1.14 3.831-.76.954-1.74 1.425-2.93 1.425-.635 0-1.19-.111-1.673-.337-.51-.249-.91-.64-1.216-1.163v3.36-.01Zm19.848-7.004c0 1.727.497 2.68 1.496 2.872.994.186 1.731-.045 2.202-.697.226-.27.386-.706.488-1.292a5.48 5.48 0 0 0 .018-1.744 3.464 3.464 0 0 0-.617-1.54c-.324-.448-.8-.675-1.42-.675-.848 0-1.421.315-1.718.937-.302.626-.449 1.34-.449 2.14Zm4.261 4.314v-.635c-.448.702-1.052 1.137-1.81 1.314a3.7 3.7 0 0 1-2.26-.19c-.75-.298-1.389-.857-1.926-1.67-.533-.816-.803-1.886-.803-3.208 0-1.55.355-2.806 1.065-3.769.71-.963 1.85-1.402 3.422-1.442 1.544-.04 2.445.306 3.324.976.963.733 1.531 1.851 1.531 3.6v5.29c0 1.683-1.171 4.807-4.855 4.541-2.286-.164-3.555-1.1-4.261-3.227h2.725c.2.35.502.617.914.804.409.19.826.235 1.23.15.413-.088.785-.332 1.123-.732.333-.4.528-1.003.577-1.802M69.953 31.8c-.018.86-.262 1.455-.737 1.779a2.677 2.677 0 0 1-1.558.488c-.355 0-.657-.102-.905-.293-.249-.195-.373-.515-.373-.954 0-.493.204-.857.608-1.096.244-.138.635-.258 1.185-.35l.59-.112c.293-.058.524-.115.688-.177.169-.063.338-.142.497-.249v.959l.005.004Zm1.31-5.62c-.844-.426-1.807-.639-2.89-.639-1.669 0-2.84.435-3.524 1.3-.43.555-.67 1.265-.728 2.127h2.49c.062-.382.182-.684.368-.906.258-.302.692-.453 1.31-.453.55 0 .967.076 1.251.231.284.155.426.43.426.839 0 .333-.186.577-.555.732-.208.09-.55.165-1.03.227l-.883.106c-1.003.129-1.762.342-2.276.635-.946.541-1.416 1.42-1.416 2.632 0 .936.293 1.655.879 2.166.58.51 1.327.723 2.228.768 5.627.253 5.56-2.965 5.614-3.635v-3.707c0-1.184-.417-1.997-1.26-2.423m19.285 6.777c-.404.532-.976.803-1.73.803-.755 0-1.332-.27-1.736-.803-.409-.533-.608-1.292-.608-2.277 0-.985.2-1.744.608-2.273.404-.532.985-.799 1.735-.799.75 0 1.327.267 1.731.8.404.532.604 1.29.604 2.272 0 .98-.2 1.744-.604 2.277Zm2.06-5.961c-.83-1.039-2.091-1.562-3.782-1.562-1.691 0-2.947.519-3.777 1.562-.83 1.039-1.247 2.268-1.247 3.684 0 1.416.412 2.672 1.247 3.702.83 1.02 2.09 1.535 3.777 1.535 1.687 0 2.951-.515 3.782-1.535.83-1.026 1.242-2.26 1.242-3.702 0-1.443-.412-2.645-1.242-3.684Z" fill="#0A0080"/></svg>