<svg version="1.1" id="svg2" width="144" height="32" viewBox="0 0 289.07999 63.933334" sodipodi:docname="identificador_color_positivo (1).eps" xmlns:inkscape="http://www.inkscape.org/namespaces/inkscape" xmlns:sodipodi="http://sodipodi.sourceforge.net/DTD/sodipodi-0.dtd" xmlns="http://www.w3.org/2000/svg" xmlns:svg="http://www.w3.org/2000/svg">
  <defs id="defs6"></defs>
  <sodipodi:namedview id="namedview4" pagecolor="#ffffff" bordercolor="#000000" borderopacity="0.25" inkscape:showpageshadow="2" inkscape:pageopacity="0.0" inkscape:pagecheckerboard="0" inkscape:deskcolor="#d1d1d1"></sodipodi:namedview>
  <g id="g8" inkscape:groupmode="layer" inkscape:label="ink_ext_XXXXXX" transform="matrix(1.3333333,0,0,-1.3333333,0,63.933333)">
    <g id="g10" transform="scale(0.1)">
      <path d="M 1941.4,6.14844 V 68.5938 c 0,3.3164 2.71,5.9648 6.02,6.0429 49.98,1.0352 88.51,15.1563 114.59,42.0113 15.35,15.813 26.54,36.497 33.3,61.543 0.86,3.184 4.02,5.176 7.23,4.422 l 60.78,-14.39 c 3.33,-0.782 5.42,-4.211 4.56,-7.524 -10.01,-38.269 -27.6,-70.5623 -52.33,-96.0427 C 2075.03,22.9375 2018.57,1.19922 1947.65,-0.00390625 1944.24,-0.0585938 1941.4,2.74219 1941.4,6.14844" style="fill:#e1134c;fill-opacity:1;fill-rule:nonzero;stroke:none" id="path12"></path>
      <path d="m 87.8281,112.676 c -3.7929,-1.035 -9.2148,-2.063 -16.2812,-3.098 -7.0586,-1.035 -14.7188,-1.555 -22.9883,-1.555 -17.2188,0 -29.6211,2.844 -37.1953,8.528 C 3.78516,122.234 0,133.172 0,149.355 v 153.446 c 0,9.98 2.57813,18.679 7.75,26.094 5.1641,7.402 12.2227,13.859 21.1797,19.375 12.0508,7.238 26.0898,12.734 42.1055,16.523 16.0156,3.801 32.8088,5.691 50.3748,5.691 37.535,0 56.313,-13.269 56.313,-39.785 0,-6.199 -0.868,-11.969 -2.582,-17.301 -1.727,-5.351 -3.793,-9.906 -6.2,-13.703 -6.543,1.375 -16.015,2.071 -28.414,2.071 -8.961,0 -18.168,-1.036 -27.644,-3.094 -9.473,-2.063 -17.8244,-5.168 -25.0549,-9.301 V 112.676" style="fill:#20204b;fill-opacity:1;fill-rule:nonzero;stroke:none" id="path14"></path>
      <path d="m 312.051,167.957 c 5.851,0 12.308,0.598 19.375,1.809 7.054,1.199 12.316,2.839 15.758,4.91 v 41.328 l -37.204,-3.098 c -9.64,-0.691 -17.566,-2.761 -23.757,-6.199 -6.203,-3.445 -9.301,-8.613 -9.301,-15.496 0,-6.895 2.66,-12.492 8.008,-16.801 5.336,-4.305 14.379,-6.453 27.121,-6.453 m -4.137,203.035 c 18.606,0 35.563,-1.89 50.899,-5.672 15.316,-3.797 28.41,-9.558 39.257,-17.312 10.848,-7.746 19.196,-17.563 25.055,-29.445 5.855,-11.895 8.789,-25.926 8.789,-42.11 v -115.73 c 0,-8.957 -2.504,-16.274 -7.492,-21.953 -4.996,-5.684 -10.942,-10.586 -17.824,-14.731 -22.395,-13.426 -53.907,-20.144 -94.547,-20.144 -18.262,0 -34.703,1.726 -49.336,5.168 -14.649,3.445 -27.223,8.601 -37.719,15.496 -10.512,6.882 -18.594,15.675 -24.281,26.347 -5.684,10.672 -8.531,23.074 -8.531,37.199 0,23.766 7.066,42.02 21.191,54.762 14.109,12.746 35.98,20.676 65.609,23.762 l 67.676,7.234 v 3.617 c 0,10 -4.383,17.125 -13.168,21.446 -8.789,4.304 -21.441,6.465 -37.969,6.465 -12.753,0 -25.41,-1.387 -37.984,-4.145 -12.57,-2.754 -23.851,-6.199 -33.836,-10.328 -4.48,3.105 -8.269,7.828 -11.363,14.207 -3.102,6.379 -4.652,12.996 -4.652,19.895 0,8.953 2.148,16.089 6.457,21.445 4.308,5.332 10.933,9.89 19.894,13.68 9.984,3.796 21.777,6.543 35.391,8.273 13.597,1.719 26.425,2.574 38.484,2.574" style="fill:#20204b;fill-opacity:1;fill-rule:nonzero;stroke:none" id="path16"></path>
      <path d="m 601.883,173.641 c 17.219,0 30.394,5.507 39.523,16.535 9.121,11.023 13.688,27.383 13.688,49.082 0,22.039 -4.215,38.055 -12.653,48.047 -8.445,9.988 -20.921,14.988 -37.461,14.988 -6.542,0 -12.582,-0.789 -18.082,-2.332 -5.515,-1.543 -10.164,-3.359 -13.949,-5.434 V 180.879 c 4.137,-2.07 8.606,-3.801 13.438,-5.168 4.816,-1.387 9.984,-2.07 15.496,-2.07 m 13.433,-69.231 c -8.269,0 -15.843,0.598 -22.738,1.809 -6.894,1.211 -13.258,2.844 -19.113,4.902 V 20.1914 c -3.797,-1.0351 -9.215,-2.0586 -16.274,-3.0937 -7.062,-1.0352 -14.718,-1.5508 -22.988,-1.5508 -17.23,0 -29.633,2.8398 -37.199,8.5312 -7.574,5.6758 -11.367,16.6133 -11.367,32.8047 V 308.484 c 0,9.297 1.976,17.051 5.941,23.25 3.953,6.204 9.379,11.536 16.274,16.02 10.668,6.883 24.367,12.476 41.074,16.797 16.699,4.297 35.39,6.441 56.054,6.441 20.665,0 39.61,-2.574 56.829,-7.742 17.218,-5.164 32.035,-13.098 44.437,-23.77 12.402,-10.671 21.953,-24.277 28.668,-40.808 6.723,-16.535 10.078,-36.352 10.078,-59.414 0,-22.043 -3.273,-41.418 -9.816,-58.125 -6.543,-16.711 -15.672,-30.742 -27.375,-42.102 -11.723,-11.367 -25.41,-19.992 -41.086,-25.84 -15.672,-5.847 -32.805,-8.781 -51.399,-8.781" style="fill:#20204b;fill-opacity:1;fill-rule:nonzero;stroke:none" id="path18"></path>
      <path d="m 789.938,359.637 c 3.785,1.023 9.207,2.058 16.273,3.093 7.055,1.04 14.723,1.543 22.988,1.543 17.211,0 29.614,-2.832 37.203,-8.511 7.571,-5.696 11.364,-16.633 11.364,-32.805 V 112.676 c -3.793,-1.035 -9.215,-2.071 -16.282,-3.11 -7.054,-1.023 -14.718,-1.543 -22.988,-1.543 -17.223,0 -29.625,2.844 -37.199,8.528 -7.574,5.683 -11.359,16.609 -11.359,32.812 z m -4.137,73.359 c 0,13.086 4.394,24.113 13.176,33.067 8.785,8.957 20.41,13.429 34.871,13.429 14.468,0 26.09,-4.472 34.875,-13.429 8.789,-8.954 13.172,-19.981 13.172,-33.067 0,-13.094 -4.383,-24.109 -13.172,-33.066 -8.785,-8.953 -20.407,-13.426 -34.875,-13.426 -14.461,0 -26.086,4.473 -34.871,13.426 -8.782,8.957 -13.176,19.972 -13.176,33.066" style="fill:#20204b;fill-opacity:1;fill-rule:nonzero;stroke:none" id="path20"></path>
      <path d="m 1049.81,173.641 c 17.21,0 30.39,5.507 39.52,16.535 9.12,11.023 13.69,27.383 13.69,49.082 0,22.039 -4.22,38.055 -12.66,48.047 -8.45,9.988 -20.92,14.988 -37.45,14.988 -6.55,0 -12.59,-0.789 -18.09,-2.332 -5.52,-1.543 -10.17,-3.359 -13.95,-5.434 V 180.879 c 4.14,-2.07 8.6,-3.801 13.44,-5.168 4.82,-1.387 9.98,-2.07 15.5,-2.07 m 13.43,-69.231 c -8.27,0 -15.85,0.598 -22.74,1.809 -6.89,1.211 -13.26,2.844 -19.12,4.902 V 20.1914 c -3.79,-1.0351 -9.21,-2.0586 -16.26,-3.0937 -7.065,-1.0352 -14.725,-1.5508 -22.995,-1.5508 -17.227,0 -29.629,2.8398 -37.195,8.5312 -7.582,5.6758 -11.371,16.6133 -11.371,32.8047 V 308.484 c 0,9.297 1.98,17.051 5.937,23.25 3.957,6.204 9.387,11.536 16.281,16.02 10.668,6.883 24.364,12.476 41.071,16.797 16.702,4.297 35.392,6.441 56.062,6.441 20.66,0 39.6,-2.574 56.82,-7.742 17.22,-5.164 32.03,-13.098 44.44,-23.77 12.4,-10.671 21.95,-24.277 28.67,-40.808 6.72,-16.535 10.07,-36.352 10.07,-59.414 0,-22.043 -3.27,-41.418 -9.81,-58.125 -6.55,-16.711 -15.68,-30.742 -27.38,-42.102 -11.72,-11.367 -25.41,-19.992 -41.08,-25.84 -15.67,-5.847 -32.8,-8.781 -51.4,-8.781" style="fill:#20204b;fill-opacity:1;fill-rule:nonzero;stroke:none" id="path22"></path>
      <path d="m 1344.29,167.957 c 5.85,0 12.31,0.598 19.37,1.809 7.06,1.199 12.32,2.839 15.76,4.91 v 41.328 l -37.2,-3.098 c -9.65,-0.691 -17.57,-2.761 -23.76,-6.199 -6.2,-3.445 -9.3,-8.613 -9.3,-15.496 0,-6.895 2.66,-12.492 8,-16.801 5.34,-4.305 14.38,-6.453 27.13,-6.453 m -4.14,203.035 c 18.61,0 35.56,-1.89 50.9,-5.672 15.31,-3.797 28.41,-9.558 39.26,-17.312 10.84,-7.746 19.19,-17.563 25.05,-29.445 5.86,-11.895 8.79,-25.926 8.79,-42.11 v -115.73 c 0,-8.957 -2.5,-16.274 -7.49,-21.953 -5,-5.684 -10.94,-10.586 -17.83,-14.731 -22.39,-13.426 -53.9,-20.144 -94.54,-20.144 -18.26,0 -34.7,1.726 -49.34,5.168 -14.65,3.445 -27.22,8.601 -37.72,15.496 -10.51,6.882 -18.59,15.675 -24.28,26.347 -5.68,10.672 -8.53,23.074 -8.53,37.199 0,23.766 7.07,42.02 21.19,54.762 14.11,12.746 35.98,20.676 65.61,23.762 l 67.68,7.234 v 3.617 c 0,10 -4.39,17.125 -13.17,21.446 -8.79,4.304 -21.44,6.465 -37.97,6.465 -12.75,0 -25.41,-1.387 -37.98,-4.145 -12.58,-2.754 -23.86,-6.199 -33.84,-10.328 -4.48,3.105 -8.27,7.828 -11.36,14.207 -3.1,6.379 -4.66,12.996 -4.66,19.895 0,8.953 2.15,16.089 6.46,21.445 4.31,5.332 10.94,9.89 19.9,13.68 9.98,3.796 21.77,6.543 35.39,8.273 13.59,1.719 26.42,2.574 38.48,2.574" style="fill:#20204b;fill-opacity:1;fill-rule:nonzero;stroke:none" id="path24"></path>
      <path d="m 1638.25,188.113 c 6.89,0 13,0.774 18.35,2.325 5.33,1.542 10.24,3.691 14.72,6.457 v 99.187 c -3.79,1.719 -7.67,3.184 -11.62,4.395 -3.97,1.211 -9.23,1.804 -15.76,1.804 -14.82,0 -26.87,-4.566 -36.17,-13.679 -9.3,-9.129 -13.94,-23.86 -13.94,-44.192 0,-21.687 4.21,-36.504 12.65,-44.422 8.43,-7.922 19.03,-11.875 31.77,-11.875 m 34.62,-56.836 c -6.89,-2.761 -14.55,-4.902 -22.99,-6.457 -8.44,-1.55 -17.83,-2.332 -28.16,-2.332 -15.5,0 -30.22,2.149 -44.17,6.465 -13.95,4.309 -26.18,11.36 -36.68,21.172 -10.51,9.824 -18.86,22.48 -25.05,37.988 -6.2,15.489 -9.31,34.422 -9.31,56.828 0,20.664 3.18,38.829 9.56,54.508 6.37,15.664 15.32,28.84 26.87,39.516 11.53,10.683 25.57,18.687 42.1,24.019 16.53,5.344 34.95,8.008 55.28,8.008 9.64,0 19.11,-0.679 28.42,-2.058 9.3,-1.375 17.99,-3.282 26.09,-5.684 8.09,-2.422 15.41,-5 21.96,-7.742 6.53,-2.778 12.05,-5.695 16.53,-8.789 6.88,-4.836 12.31,-10.254 16.27,-16.274 3.96,-6.035 5.94,-13.699 5.94,-22.984 V 115.777 c 0,-18.2497 -3.35,-34.0114 -10.08,-47.2731 -6.71,-13.2617 -16.01,-24.2851 -27.89,-33.0664 -11.88,-8.7812 -25.83,-15.2461 -41.85,-19.375 -16.01,-4.1289 -33.15,-6.19141 -51.41,-6.19141 -18.6,0 -34.96,1.46481 -49.07,4.38671 -14.14,2.9375 -25.32,7.1445 -33.58,12.6641 -12.41,8.2539 -18.61,19.9726 -18.61,35.1289 0,7.9297 1.63,15.164 4.91,21.6953 3.27,6.543 6.97,11.3672 11.11,14.4648 9.98,-5.5078 21.26,-10.1562 33.84,-13.9531 12.57,-3.7812 25.74,-5.6758 39.52,-5.6758 18.25,0 32.89,3.0977 43.92,9.2969 11.01,6.1992 16.53,16.1911 16.53,29.9611 v 13.437" style="fill:#20204b;fill-opacity:1;fill-rule:nonzero;stroke:none" id="path26"></path>
      <path d="m 1934.28,302.281 c -14.46,0 -25.66,-5.593 -33.57,-16.785 -7.94,-11.199 -11.89,-27.117 -11.89,-47.793 0,-21.699 3.95,-37.976 11.89,-48.816 7.91,-10.852 19.11,-16.282 33.57,-16.282 14.47,0 25.66,5.508 33.58,16.536 7.93,11.023 11.89,27.207 11.89,48.562 0,20.676 -3.96,36.594 -11.89,47.793 -7.92,11.192 -19.11,16.785 -33.58,16.785 m 135.37,-64.578 c 0,-20.664 -3.19,-39.258 -9.57,-55.801 -6.37,-16.523 -15.49,-30.566 -27.37,-42.097 -11.89,-11.543 -26.09,-20.41 -42.63,-26.614 -16.53,-6.203 -35.13,-9.296 -55.8,-9.296 -20.67,0 -39.26,3.015 -55.79,9.043 -16.54,6.015 -30.75,14.804 -42.62,26.347 -11.89,11.531 -21.02,25.574 -27.38,42.11 -6.38,16.523 -9.57,35.293 -9.57,56.308 0,20.32 3.27,38.75 9.82,55.281 6.53,16.536 15.75,30.571 27.64,42.102 11.89,11.543 26.09,20.41 42.62,26.609 16.53,6.211 34.96,9.297 55.28,9.297 20.33,0 38.75,-3.179 55.28,-9.551 16.53,-6.382 30.74,-15.332 42.63,-26.863 11.88,-11.555 21.09,-25.574 27.63,-42.109 6.55,-16.531 9.83,-34.785 9.83,-54.766" style="fill:#20204b;fill-opacity:1;fill-rule:nonzero;stroke:none" id="path28"></path>
    </g>
  </g>
</svg>
